<svg width="600" height="400" viewBox="0 0 600 400" fill="none" xmlns="http://www.w3.org/2000/svg">
  <!-- App Container -->
  <rect x="40" y="40" width="520" height="320" rx="12" fill="white" stroke="rgba(15,23,42,0.1)"/>
  <!-- Sidebar -->
  <rect x="40" y="40" width="160" height="320" rx="12" fill="#FBFBFD"/>
  <rect x="200" y="40" width="1" height="320" fill="rgba(15,23,42,0.05)"/>
  <circle cx="80" cy="80" r="16" fill="#5C48B1"/>
  <rect x="104" y="74" width="70" height="12" rx="4" fill="#0B0D12"/>
  <rect x="56" y="120" width="128" height="8" rx="4" fill="#E2E8F0"/>
  <rect x="56" y="140" width="100" height="8" rx="4" fill="#E2E8F0"/>
  
  <!-- Calendar Grid Area -->
  <rect x="220" y="60" width="200" height="24" rx="4" fill="#0B0D12"/>
  <rect x="220" y="100" width="316" height="40" rx="8" fill="#F7F7F9"/>
  
  <rect x="220" y="160" width="100" height="48" rx="8" fill="#5C48B1"/>
  <rect x="330" y="160" width="100" height="48" rx="8" fill="#FBFBFD" stroke="rgba(15,23,42,0.1)"/>
  <rect x="440" y="160" width="100" height="48" rx="8" fill="#FBFBFD" stroke="rgba(15,23,42,0.1)"/>
  
  <rect x="220" y="220" width="100" height="48" rx="8" fill="#FBFBFD" stroke="rgba(15,23,42,0.1)"/>
  <rect x="330" y="220" width="100" height="48" rx="8" fill="#FBFBFD" stroke="rgba(15,23,42,0.1)"/>
  
  <rect x="220" y="290" width="320" height="44" rx="8" fill="#5C48B1"/>
</svg>
